<svg xmlns="http://www.w3.org/2000/svg" viewBox="0 0 223.55 223.55" fill="#FFF"><title>Asset 2</title><g id="Layer_2" data-name="Layer 2"><g id="Capa_1" data-name="Capa 1"><path d="M112.41,153.86a7.1,7.1,0,0,0-2.64-.09,17.54,17.54,0,0,1-15.5-17.38,7.71,7.71,0,1,0-15.41,0,33,33,0,0,0,24.24,31.75v7.71a7.71,7.71,0,1,0,15.42,0v-7.24a32.91,32.91,0,0,0-6.75-65.13A17.51,17.51,0,1,1,129.28,86a7.71,7.71,0,1,0,15.41,0,33,33,0,0,0-26.17-32.22v-7a7.71,7.71,0,1,0-15.42,0v7.48a32.92,32.92,0,0,0,8.67,64.67,17.49,17.49,0,0,1,.64,35Z"/><path d="M0,111.77A111.78,111.78,0,1,0,111.77,0,111.77,111.77,0,0,0,0,111.77ZM111.77,15.42a96.36,96.36,0,1,1-96.35,96.35A96.36,96.36,0,0,1,111.77,15.42Z"/></g></g></svg>