<svg xmlns="http://www.w3.org/2000/svg" viewBox="0 0 230.52 230.52" fill="#FFF"><defs><style>.cls-1{stroke:#FFF;stroke-miterlimit:10;stroke-width:5px;}</style></defs><title>Asset 3</title><g id="Layer_2" data-name="Layer 2"><g id="Capa_1" data-name="Capa 1"><path class="cls-1" d="M115.26,2.5A112.76,112.76,0,1,0,228,115.26,112.77,112.77,0,0,0,115.26,2.5Zm97.52,152.26-32.07,5.54a168,168,0,0,0,5.9-41.28h33.8A104.68,104.68,0,0,1,212.78,154.76ZM10.11,119h33.8a168,168,0,0,0,5.9,41.28l-32.07-5.54A104.45,104.45,0,0,1,10.11,119Zm7.63-43.26,32.07-5.54a168,168,0,0,0-5.9,41.28H10.11A104.45,104.45,0,0,1,17.74,75.76ZM119,62.85a257.94,257.94,0,0,1,40.29,3.68l13.27,2.29a161.07,161.07,0,0,1,6.52,42.68H119Zm41.57-3.73A265.72,265.72,0,0,0,119,55.33V10.23c21.55,2.07,40.26,21.8,50.87,50.51ZM111.5,55.33a265.83,265.83,0,0,0-41.57,3.79l-9.3,1.61C71.24,32,90,12.27,111.5,10.21ZM71.21,66.53a257.94,257.94,0,0,1,40.29-3.68V111.5H51.42a161.07,161.07,0,0,1,6.52-42.68ZM51.42,119H111.5v48.65A257.94,257.94,0,0,1,71.21,164L57.94,161.7A161.07,161.07,0,0,1,51.42,119ZM69.93,171.4a268.07,268.07,0,0,0,41.57,3.81v45.1C90,218.24,71.24,198.51,60.63,169.8ZM119,175.21a268.29,268.29,0,0,0,41.57-3.81l9.3-1.61c-10.61,28.72-29.32,48.46-50.87,50.52ZM159.31,164A257.94,257.94,0,0,1,119,167.67V119H179.1a161.07,161.07,0,0,1-6.52,42.68Zm27.3-52.49a168,168,0,0,0-5.9-41.28l32.07,5.54a104.68,104.68,0,0,1,7.63,35.74Zm22.37-44-30.74-5.3a103.68,103.68,0,0,0-29.9-46.8A105.77,105.77,0,0,1,209,67.47ZM82.18,15.37a103.68,103.68,0,0,0-29.9,46.8l-30.74,5.3A105.77,105.77,0,0,1,82.18,15.37ZM21.54,163.05l30.74,5.3a103.68,103.68,0,0,0,29.9,46.8A105.77,105.77,0,0,1,21.54,163.05Zm126.8,52.1a103.68,103.68,0,0,0,29.9-46.8l30.74-5.3A105.77,105.77,0,0,1,148.34,215.15Z"/></g></g></svg>