<svg xmlns="http://www.w3.org/2000/svg" viewBox="0 0 209.61 209.61" fill="#FFF"><defs><style>.cls-1{stroke:#FFF;stroke-miterlimit:10;stroke-width:6px;}</style></defs><title>Asset 1</title><g id="Layer_2" data-name="Layer 2"><g id="Capa_1" data-name="Capa 1"><path class="cls-1" d="M206.61,104.81A101.81,101.81,0,1,0,36,179.8l-.09.09,3.3,2.78c.22.18.45.33.66.51,1.76,1.45,3.58,2.84,5.43,4.17.6.43,1.2.87,1.81,1.29q3,2,6.08,3.88c.45.27.9.53,1.36.78q3.4,1.95,7,3.63l.52.24A101.2,101.2,0,0,0,86.7,205l.68.12c2.68.47,5.39.84,8.13,1.09l1,.07c2.74.23,5.5.37,8.3.37s5.51-.14,8.22-.36l1-.08c2.72-.25,5.4-.6,8.06-1.06l.69-.13a100.92,100.92,0,0,0,24.28-7.6l.84-.39c2.29-1.07,4.52-2.23,6.71-3.46l1.62-.94c2-1.17,3.95-2.4,5.86-3.7.68-.47,1.35-1,2-1.45,1.62-1.17,3.22-2.38,4.77-3.64.34-.28.71-.52,1-.8l3.39-2.83-.1-.09A101.52,101.52,0,0,0,206.61,104.81Zm-196.21,0a94.41,94.41,0,1,1,157,70.57,27.81,27.81,0,0,0-3.3-2l-31.35-15.67a8.21,8.21,0,0,1-4.56-7.38V139.4c.73-.9,1.49-1.92,2.28-3a75.29,75.29,0,0,0,9.69-19,13.43,13.43,0,0,0,7.72-12.17V92.1a13.48,13.48,0,0,0-3.29-8.77V66.06c.2-1.92.88-12.77-7-21.71-6.82-7.79-17.86-11.73-32.82-11.73S78.8,36.56,72,44.34c-7.84,8.95-7.16,19.79-7,21.71V83.33a13.5,13.5,0,0,0-3.28,8.77v13.13a13.45,13.45,0,0,0,5,10.44,69.51,69.51,0,0,0,11.45,23.65V150a8.26,8.26,0,0,1-4.3,7.25l-29.28,16A27.34,27.34,0,0,0,41.78,175,94.16,94.16,0,0,1,10.4,104.81Zm149.79,76.38q-2,1.41-3.95,2.72c-.62.4-1.23.8-1.86,1.19-1.74,1.08-3.52,2.11-5.33,3.07l-1.21.62a95,95,0,0,1-12.91,5.46l-.47.16c-2.32.77-4.68,1.46-7.05,2h0c-2.4.59-4.83,1.08-7.28,1.49l-.2,0c-2.29.38-4.61.65-6.94.85l-1.23.09c-2.3.18-4.61.29-6.93.29s-4.69-.12-7-.29l-1.21-.09c-2.34-.21-4.68-.49-7-.86l-.31-.06a94.45,94.45,0,0,1-14.4-3.59l-.44-.15c-2.33-.8-4.63-1.67-6.89-2.64l0,0c-2.14-.93-4.24-1.95-6.31-3l-.82-.41c-1.89-1-3.74-2.11-5.56-3.25-.54-.34-1.08-.68-1.61-1-1.68-1.1-3.34-2.24-5-3.45l-.49-.39.36-.2,29.27-16A15.65,15.65,0,0,0,85.54,150V136.7l-.85-1a61.57,61.57,0,0,1-11.11-23l-.34-1.47L72,110.37a6.13,6.13,0,0,1-2.85-5.15V92.1a6.06,6.06,0,0,1,2.06-4.53l1.22-1.1V65.85l0-.49a22.32,22.32,0,0,1,5.17-16.14c5.35-6.1,14.53-9.2,27.26-9.2s21.82,3.07,27.19,9.13c6.27,7.07,5.24,16.14,5.23,16.22l0,21.1,1.22,1.11a6,6,0,0,1,2.06,4.52v13.13a6.18,6.18,0,0,1-4.37,5.83l-1.84.57-.59,1.83a68.71,68.71,0,0,1-9.24,18.63c-1,1.37-1.92,2.58-2.73,3.51l-.91,1.05v13.69a15.55,15.55,0,0,0,8.65,14L160.8,180l.59.31C161,180.62,160.59,180.9,160.19,181.19Z"/></g></g></svg>